<?xml version="1.0" standalone="no"?>
<!DOCTYPE svg PUBLIC "-//W3C//DTD SVG 20010904//EN"
 "http://www.w3.org/TR/2001/REC-SVG-20010904/DTD/svg10.dtd">
<svg version="1.0" xmlns="http://www.w3.org/2000/svg"
 width="96.000000pt" height="96.000000pt" viewBox="0 0 96.000000 96.000000"
 preserveAspectRatio="xMidYMid meet">

<g transform="translate(0.000000,96.000000) scale(0.100000,-0.100000)"
fill="#000000" stroke="none">
<path d="M149 811 c-26 -26 -29 -36 -29 -91 0 -55 3 -65 29 -91 29 -29 31 -29
141 -29 110 0 112 0 141 29 26 26 29 36 29 91 0 55 -3 65 -29 91 -29 29 -31
29 -141 29 -110 0 -112 0 -141 -29z"/>
<path d="M529 811 l-29 -29 0 -162 0 -162 29 -29 c29 -29 31 -29 141 -29 110
0 112 0 141 29 l29 29 0 162 0 162 -29 29 c-29 29 -31 29 -141 29 -110 0 -112
0 -141 -29z"/>
<path d="M149 531 l-29 -29 0 -162 0 -162 29 -29 c29 -29 31 -29 141 -29 110
0 112 0 141 29 l29 29 0 162 0 162 -29 29 c-29 29 -31 29 -141 29 -110 0 -112
0 -141 -29z"/>
<path d="M529 331 c-26 -26 -29 -36 -29 -91 0 -55 3 -65 29 -91 29 -29 31 -29
141 -29 110 0 112 0 141 29 26 26 29 36 29 91 0 55 -3 65 -29 91 -29 29 -31
29 -141 29 -110 0 -112 0 -141 -29z"/>
</g>
</svg>
