<svg xmlns="http://www.w3.org/2000/svg" xmlns:xlink="http://www.w3.org/1999/xlink" width="100" zoomAndPan="magnify" viewBox="0 0 75 74.999997" height="100" preserveAspectRatio="xMidYMid meet" version="1.0"><path fill="#000000" d="M 65.117188 67.460938 C 64.523438 27.78125 46.105469 18.160156 38.03125 15.902344 C 36.011719 15.308594 33.992188 14.953125 32.089844 14.832031 C 29 10.082031 21.277344 4.023438 1.4375 4.617188 L 1.558594 6.992188 C 15.101562 6.519531 24.722656 9.367188 29.117188 14.714844 C 21.515625 14.953125 15.21875 18.277344 12.722656 22.4375 C 10.703125 25.761719 11.179688 29.324219 13.914062 32.414062 C 17.59375 36.453125 22.464844 37.402344 26.863281 34.910156 C 31.96875 32.058594 35.890625 24.335938 33.277344 17.328125 C 44.085938 18.632812 61.90625 28.140625 62.621094 66.867188 L 56.5625 60.570312 L 54.898438 62.234375 L 64.164062 71.738281 L 73.667969 62.472656 L 72.003906 60.808594 Z M 25.792969 32.890625 C 23.773438 33.960938 19.851562 35.265625 15.695312 30.871094 C 13.554688 28.613281 13.320312 26.121094 14.742188 23.742188 C 17 20.058594 23.058594 17.207031 30.1875 17.207031 L 30.664062 17.207031 C 30.902344 17.804688 31.136719 18.398438 31.375 19.109375 C 33.039062 24.929688 29.832031 30.632812 25.792969 32.890625 Z M 25.792969 32.890625 " fill-opacity="1" fill-rule="nonzero"/></svg>