<?xml version="1.0" encoding="UTF-8"?><svg id="a" xmlns="http://www.w3.org/2000/svg" width="714.38" height="243.4" xmlns:xlink="http://www.w3.org/1999/xlink" viewBox="0 0 714.38 243.4"><defs><style>.d{fill:none;stroke:#231f20;stroke-miterlimit:10;stroke-width:2px;}.e{fill:url(#b);}.f{font-family:ArialRoundedMTBold, 'Arial Rounded MT Bold';font-size:157.71px;}.g{fill:url(#c);}</style><linearGradient id="b" x1="264.31" y1="192.75" x2="27.58" y2="192.75" gradientUnits="userSpaceOnUse"><stop offset="0" stop-color="#d3dd25"/><stop offset=".98" stop-color="#554f21"/></linearGradient><linearGradient id="c" x1="28.42" y1="54.43" x2="264.12" y2="54.43" gradientUnits="userSpaceOnUse"><stop offset="0" stop-color="#eee80f"/><stop offset=".98" stop-color="#2a1c0e"/></linearGradient></defs><text class="f" transform="translate(296.88 159.41)"><tspan x="0" y="0">mnify</tspan></text><path class="e" d="M257.77,142.48c-.18,6.64-1.34,13.21-3.03,19.65-1.72,6.44-4.08,12.74-7.03,18.78-1.43,3.05-3.11,5.97-4.82,8.88-1.79,2.86-3.63,5.7-5.68,8.39-4.01,5.45-8.63,10.48-13.89,14.78-10.5,8.67-23.09,14.38-35.34,19-6.16,2.34-12.38,4.42-18.74,6.18-6.36,1.74-12.85,3.29-19.52,4.18-1.66,.3-3.34,.43-5.02,.6-1.68,.17-3.38,.35-5.07,.35-1.69,.04-3.4,.12-5.11,.12-1.7-.08-3.41-.1-5.11-.22-6.82-.49-13.57-1.91-20.15-3.86-6.59-1.94-13.01-4.49-19.14-7.67-3.08-1.57-6.05-3.35-8.94-5.27-2.85-1.95-5.62-4.01-8.26-6.21-5.28-4.42-10.08-9.36-14.34-14.68-2.17-2.63-4.13-5.41-6.05-8.2-1.86-2.83-3.65-5.7-5.26-8.65-1.63-2.94-3.11-5.95-4.49-8.92-1.4-3.04-2.68-6.12-3.82-9.24-2.26-6.26-4.04-12.65-5.06-19.17l1.41-.52c3.47,5.55,6.87,10.97,10.51,16.17,1.81,2.6,3.65,5.16,5.54,7.66,1.91,2.56,3.82,5.03,5.77,7.45,7.8,9.65,16.38,18.33,25.88,25.67,4.73,3.71,9.6,7.12,14.73,10.18,5.14,3.05,10.51,5.8,16.12,8,5.6,2.22,11.41,3.92,17.32,5.33,5.92,1.41,12,2.39,18.21,2.88,12.41,1.04,25.29-1.23,36.69-6.61,2.84-1.36,5.58-2.92,8.2-4.66,2.61-1.74,5.06-3.67,7.4-5.74,4.7-4.11,8.92-8.67,13.02-13.22,4.1-4.55,8.07-9.17,11.96-13.88,3.84-4.76,7.48-9.71,10.89-14.87,3.43-5.15,6.64-10.5,9.73-16.01,3.1-5.51,5.99-11.2,9.04-17.03l1.45,.38Z"/><path class="g" d="M34.18,104.51c-.08-14,3.39-28.06,9.4-40.99,3.03-6.5,6.81-12.64,11.12-18.36,4.31-5.72,9.25-11.01,14.84-15.51,2.8-2.24,5.71-4.35,8.75-6.23,3.02-1.9,6.15-3.68,9.35-5.23,6.39-3.13,12.93-5.68,19.49-8.05,6.57-2.33,13.24-4.34,20.04-5.95,6.72-1.6,13.65-3.09,20.76-3.74,3.55-.34,7.14-.52,10.74-.42,3.6,.08,7.22,.33,10.79,.89,7.18,1.04,14.19,3.17,20.91,5.92,13.44,5.51,25.9,13.86,35.69,24.71,4.9,5.38,9.15,11.36,12.81,17.29,3.81,6.01,7.09,12.4,9.84,18.93,5.5,13.07,8.87,26.92,9.69,40.82l-1.27,.28c-5.11-12.84-10.71-25.1-17.59-36.47-3.43-5.69-7.09-11.15-11.08-16.4-4.04-5.39-8.08-10.36-12.55-14.98-8.86-9.21-19.05-17.21-30.58-22.97-5.77-2.86-11.82-5.12-18.04-6.89-6.23-1.76-12.67-3.09-19.27-3.59-3.3-.23-6.63-.33-9.97-.16-3.34,.16-6.69,.53-10.04,1.08-6.63,1.06-13.17,2.9-19.35,5.56-6.18,2.67-11.98,6.17-17.25,10.25-2.65,2.02-5.12,4.17-7.54,6.45-2.42,2.24-4.74,4.58-7.03,6.92-4.55,4.71-8.86,9.59-13.03,14.62-4.08,5.1-7.91,10.42-11.3,16.01-3.41,5.63-6.51,11.49-9.32,17.58-2.82,6.08-5.3,12.39-7.74,18.88l-1.28-.22Z"/><path d="M22.23,107.4c-12.28,0-22.23,10.03-22.23,22.41s9.95,22.41,22.23,22.41,22.23-10.04,22.23-22.41-9.96-22.41-22.23-22.41Zm0,33.41c-6.03,0-10.92-4.93-10.92-11s4.89-11.01,10.92-11.01,10.92,4.93,10.92,11.01-4.89,11-10.92,11Z"/><path d="M113.01,176.79c-13.04,0-23.59,10.64-23.59,23.78s10.56,23.78,23.59,23.78,23.59-10.66,23.59-23.78-10.57-23.78-23.59-23.78Zm0,35.45c-6.4,0-11.59-5.23-11.59-11.67s5.19-11.69,11.59-11.69,11.59,5.23,11.59,11.69-5.19,11.67-11.59,11.67Z"/><path d="M173.31,14.28c-16.45,0-29.77,13.43-29.77,30.01s13.32,30.01,29.77,30.01,29.77-13.45,29.77-30.01-13.34-30.01-29.77-30.01Zm0,44.74c-8.08,0-14.63-6.6-14.63-14.73s6.55-14.75,14.63-14.75,14.63,6.6,14.63,14.75-6.55,14.73-14.63,14.73Z"/><path d="M273.94,116.69c-11.74,0-21.24,9.58-21.24,21.41s9.5,21.41,21.24,21.41,21.24-9.6,21.24-21.41-9.52-21.41-21.24-21.41Zm0,31.92c-5.77,0-10.44-4.71-10.44-10.51s4.67-10.52,10.44-10.52,10.44,4.71,10.44,10.52-4.67,10.51-10.44,10.51Z"/><line class="d" x1="36.47" y1="140.02" x2="100.01" y2="189.84"/><line class="d" x1="163.12" y1="66.37" x2="120.67" y2="189.36"/><line class="d" x1="191.09" y1="60.06" x2="262.75" y2="126.06"/></svg>